<svg viewBox="0 0 227 227" fill="none" xmlns="http://www.w3.org/2000/svg">
<path d="M0 0.00012207H227V227H0V0.00012207Z" fill="#00247D"/>
<path d="M0.064518 0L0.0641921 0.000666971L75.6875 75.6666H58.7756L0 16.8574V25.3184L50.3198 75.6666H0V90.8003H94.5831H102.15V75.6666V0H94.5831V69.1907L25.4318 0H16.9761H8.51962H0.064518ZM124.85 0V75.6666V90.8003H132.417H227V75.6666H176.68L227 25.3184V16.8574V8.39646V0.25742L226.936 0.000651697L151.312 75.6666H134.4L210.024 0H201.568L132.417 69.1907V0H124.85ZM0 136.2V151.333H50.3201L0 201.682V210.142V218.603L0.064518 218.539V227L75.6882 151.333H92.6007L16.9767 227H25.4321L94.5831 157.81V227H102.15V151.333V136.2H94.5831H0ZM124.85 136.2V151.333V227H132.417V157.81L201.568 227H210.024H218.48H226.936L151.312 151.333H168.224L227 210.142V201.682L176.68 151.333H227V136.2H132.417H124.85Z" fill="white"/>
<path d="M102.15 0V90.8003H0V136.2H102.15V227H124.85V136.2H227V90.8003H124.85V0H102.15Z" fill="#CF142B"/>
<path d="M0.0641921 0.000549316L0 0.257318V8.39636V16.8573L58.7756 75.6665H67.2319H75.6875L0.0641921 0.000549316Z" fill="#CF142B"/>
<path d="M151.312 151.333L226.935 227V218.539L227 218.603V210.142L168.224 151.333H159.768H151.312Z" fill="#CF142B"/>
<path d="M75.6882 151.333L0.0641937 227H8.52029H16.9767L92.6007 151.333H84.1444H75.6882Z" fill="#CF142B"/>
<path d="M210.024 1.52741e-05L134.4 75.6666H142.856H151.312L226.936 0.000666971V0H218.48L210.024 1.52741e-05Z" fill="#CF142B"/>
</svg>
