<svg viewBox="0 0 341 227" fill="none" xmlns="http://www.w3.org/2000/svg">
<title >English</title>
<g clip-path="url(#clip0)">
<path d="M0 0.00012207H341V227H0V0.00012207Z" fill="#00247D"/>
<path d="M0.0969191 0L0.0964296 0.000666971L113.698 75.6666H88.2928L0 16.8574V25.3184L75.5905 75.6666H0V90.8003H142.083H153.45V75.6666V0H142.083V69.1907L38.2037 0H25.5015H12.7982H0.0969191ZM187.55 0V75.6666V90.8003H198.917H341V75.6666H265.409L341 25.3184V16.8574V8.39646V0.25742L340.904 0.000651697L227.302 75.6666H201.896L315.499 0H302.796L198.917 69.1907V0H187.55ZM0 136.2V151.333H75.591L0 201.682V210.142V218.603L0.0969191 218.539V227L113.699 151.333H139.105L25.5024 227H38.2042L142.083 157.81V227H153.45V151.333V136.2H142.083H0ZM187.55 136.2V151.333V227H198.917V157.81L302.796 227H315.498H328.201H340.904L227.301 151.333H252.706L341 210.142V201.682L265.409 151.333H341V136.2H198.917H187.55Z" fill="white"/>
<path d="M153.45 0V90.8003H0V136.2H153.45V227H187.55V136.2H341V90.8003H187.55V0H153.45Z" fill="#CF142B"/>
<path d="M0.0964296 0.000549316L0 0.257318V8.39636V16.8573L88.2928 75.6665H100.996H113.698L0.0964296 0.000549316Z" fill="#CF142B"/>
<path d="M227.301 151.333L340.903 227V218.539L341 218.603V210.142L252.706 151.333H240.004H227.301Z" fill="#CF142B"/>
<path d="M113.699 151.333L0.0964355 227H12.7992H25.5025L139.105 151.333H126.402H113.699Z" fill="#CF142B"/>
<path d="M315.499 1.52741e-05L201.896 75.6666H214.599H227.302L340.904 0.000666971V0H328.202L315.499 1.52741e-05Z" fill="#CF142B"/>
</g>
<defs>
<clipPath id="clip0">
<rect width="341" height="227" rx="13" fill="white"/>
</clipPath>
</defs>
</svg>
