<svg width="125" viewBox="0 0 96 68" fill="none" xmlns="http://www.w3.org/2000/svg" class="w-40 text-indigo-300 dark:text-indigo-900">
	<g clip-path="url(#clip0_201_41)">
		<path d="M5.68381 16.2422C5.47312 17.2819 5.68409 18.3628 6.27032 19.2469C6.85654 20.1311 7.76999 20.7462 8.80972 20.9569L17.6304 22.7443C18.2781 22.8756 18.9453 22.8771 19.5936 22.7489C20.2419 22.6207 20.8583 22.3653 21.4072 21.9973C21.9561 21.6294 22.4267 21.1564 22.7917 20.6055C23.1566 20.0546 23.4088 19.4368 23.5335 18.7879C23.6583 18.139 23.6532 17.4717 23.5185 16.8248C23.3838 16.1779 23.1222 15.564 22.7488 15.0188C22.3754 14.4736 21.8977 14.0078 21.3432 13.6483C20.7887 13.2889 20.1684 13.0429 19.5183 12.9247C19.5239 12.2596 19.3967 11.6 19.1444 10.9847C18.892 10.3693 18.5194 9.81042 18.0485 9.34077C17.5775 8.87112 17.0176 8.50011 16.4015 8.24945C15.7854 7.99879 15.1256 7.87352 14.4605 7.88096C13.7954 7.8884 13.1385 8.02841 12.5282 8.29279C11.9179 8.55717 11.3664 8.94062 10.9061 9.42069C10.4457 9.90076 10.0858 10.4678 9.84721 11.0887C9.60867 11.7096 9.49634 12.3718 9.51681 13.0366C8.60896 13.0566 7.73494 13.3849 7.03837 13.9675C6.3418 14.55 5.86411 15.3522 5.68381 16.2422V16.2422Z" stroke="currentColor" stroke-width="1.5" stroke-linecap="round" stroke-linejoin="round" />
	</g>
	<path d="M35.2331 41.6161L36.6233 34.7556L25.618 43.749L32.4785 45.1392L31.0883 51.9998L42.0937 43.0063L35.2331 41.6161Z" stroke="currentColor" stroke-width="1.5" stroke-linecap="round" stroke-linejoin="round" />
	<path d="M58.8607 29.0584L63.4406 29.9865L58.8607 29.0584ZM63.9316 15.8015L63.733 16.7815L63.9316 15.8015ZM69.6453 19.6489L68.812 20.2014L69.6453 19.6489ZM70.9649 26.4096L69.9848 26.211L70.9649 26.4096ZM54.3036 23.0334L53.3235 22.8348L54.3036 23.0334ZM57.7234 17.9544L57.1709 17.121L57.7234 17.9544ZM57.9764 27.3855C57.4301 26.5613 57.1404 25.5935 57.144 24.6047C57.1477 23.6158 57.4445 22.6503 57.9968 21.8301C58.5492 21.0099 59.3324 20.3719 60.2473 19.9968C61.1622 19.6217 62.1679 19.5263 63.137 19.7227C64.1062 19.9191 64.9953 20.3984 65.6921 21.1001C66.3888 21.8018 66.8618 22.6944 67.0513 23.6649C67.2408 24.6354 67.1383 25.6403 66.7567 26.5526C66.3751 27.4649 65.7316 28.2435 64.9075 28.79L64.2618 29.2173C63.8925 29.4622 63.5751 29.7774 63.3276 30.145C63.0802 30.5125 62.9075 30.9252 62.8196 31.3595L62.7141 31.88C62.6088 32.3998 62.3012 32.8565 61.8592 33.1497C61.4171 33.4428 60.8766 33.5483 60.3568 33.4429C59.8369 33.3376 59.3802 33.03 59.0871 32.5879C58.794 32.1458 58.6885 31.6054 58.7938 31.0855L58.8993 30.5651C59.077 29.6879 58.8987 28.7754 58.4048 28.0304L57.9764 27.3855Z" stroke="currentColor" stroke-width="1.5" stroke-linecap="round" stroke-linejoin="round" />
	<g clip-path="url(#clip1_201_41)">
		<path d="M75.8265 42.6997L75.0321 46.62L75.8265 42.6997ZM73.4691 44.2627L77.3894 45.0571L73.4691 44.2627ZM74.0261 56.6194L73.2317 60.5397L74.0261 56.6194ZM71.6688 58.1824L75.5891 58.9768L71.6688 58.1824ZM83.6671 44.2885L84.5458 51.4629L89.7203 54.6981L83.6946 55.6636L80.0923 61.93L79.2136 54.7555L74.0391 51.5204L80.0649 50.5549L83.6671 44.2885Z" stroke="currentColor" stroke-width="1.5" stroke-linecap="round" stroke-linejoin="round" />
	</g>
	<defs>
		<clipPath id="clip0_201_41">
			<rect width="24" height="24" fill="white" transform="translate(5.72263 0.94519) rotate(11.4553)" />
		</clipPath>
		<clipPath id="clip1_201_41">
			<rect width="24" height="24" fill="white" transform="translate(71.5219 38.7665) rotate(11.4553)" />
		</clipPath>
	</defs>
</svg>
